<svg xmlns="http://www.w3.org/2000/svg" width="256" height="256" viewBox="0 0 256 256">
  <defs>
    <linearGradient id="bg" x1="0%" y1="0%" x2="100%" y2="100%">
      <stop offset="0%" style="stop-color:#1e1e2e"/>
      <stop offset="100%" style="stop-color:#2d2d44"/>
    </linearGradient>
    <linearGradient id="flask" x1="0%" y1="0%" x2="100%" y2="100%">
      <stop offset="0%" style="stop-color:#a78bfa"/>
      <stop offset="100%" style="stop-color:#7c3aed"/>
    </linearGradient>
  </defs>
  <rect width="256" height="256" rx="24" fill="url(#bg)"/>
  <!-- Flask body -->
  <path d="M108 48v60.5a8 8 0 0 1-1.7 4.9L62 175c-8.6 10.8-1.2 27 12.4 27h107.2c13.6 0 21-16.2 12.4-27l-44.3-61.6a8 8 0 0 1-1.7-4.9V48" 
        fill="none" stroke="url(#flask)" stroke-width="8" stroke-linecap="round" stroke-linejoin="round"/>
  <!-- Flask top -->
  <line x1="96" y1="48" x2="160" y2="48" stroke="url(#flask)" stroke-width="8" stroke-linecap="round"/>
  <!-- Bubbles -->
  <circle cx="100" cy="160" r="8" fill="#22c55e" opacity="0.9"/>
  <circle cx="128" cy="148" r="6" fill="#22c55e" opacity="0.9"/>
  <circle cx="156" cy="164" r="7" fill="#ef4444" opacity="0.9"/>
  <circle cx="140" cy="176" r="5" fill="#22c55e" opacity="0.9"/>
  <circle cx="112" cy="178" r="6" fill="#22c55e" opacity="0.9"/>
  <!-- Small dots -->
  <circle cx="120" cy="168" r="3" fill="#6b7280" opacity="0.6"/>
  <circle cx="148" cy="152" r="3" fill="#22c55e" opacity="0.7"/>
</svg>
